<?xml version="1.0" standalone="no"?>
<!DOCTYPE svg PUBLIC "-//W3C//DTD SVG 1.1//EN" "http://www.w3.org/Graphics/SVG/1.1/DTD/svg11.dtd" >
<svg xmlns="http://www.w3.org/2000/svg" xmlns:xlink="http://www.w3.org/1999/xlink" version="1.1" viewBox="-10 0 266 256">
   <path fill="currentColor"
d="M118 11q3 -3 6 0q1 2 5 1q1 1 6 2h3q2 3 0 4q-11 0 -27 4q-11 2 -24 12q-5 3 -6 3q-1 -1 3 -5q2 -2 2 -3t-3 -1q-15 3 -29 -2q-4 -1 1 -2q27 1 52 -7q8 -1 11 -6zM102 33q-2 -2 1 -1q5 3 9 5q2 1 2 2t-1 2q-3 1 -2 5q-3 10 -2 44q3 -3 5 -6q4 -2 2 2q-5 7 -8 10v27
q0 9 1 12q32 -6 37 -14q4 -5 11 -3q1 2 4 3h3q3 0 7 2h2q1 2 0 4q-2 2 -4 1q-8 -2 -20 1t-36 11q-9 5 -32 1q-2 0 -2 -2q1 -1 3 -1q12 1 21 -2q-8 -9 -5 -18q0 -3 1 -3l2 2q2 3 3 3t1 -3v-17q-23 22 -40 38q-3 3 -4 2q-1 0 -2 -4q-3 -6 4 -6q1 6 42 -37v-46q-1 -8 -3 -14z
M196 56q0 1 2 2q7 4 11 7q2 6 -3 6q-11 -1 -26 15q4 0 13 3q2 3 -1 4q-11 0 -29 3h-5q0 4 -4 5q-10 1 -17 -4q-3 -7 0 -11q4 -1 1 -7q-1 0 -6 -15q0 -1 1 -2q1 0 2 1q1 2 3 5q1 2 2 2q4 0 15 -3q12 -3 21 -5q6 1 10 -5q3 -5 10 -1zM182 63q-16 6 -41 9q1 3 3 6q2 5 4 6
q2 7 10 9l12 -6q10 -10 16 -19q0 -5 -4 -5zM71 44q5 -4 1 2q-20 20 -13 25q4 24 6 29q12 -6 16 -13q1 -3 5 -3q4 -1 8 -1q3 1 1 2q-8 2 -17 21q-4 5 -1 -1q0 -1 1 -3q0 -2 1 -5q-1 -3 -2 -2l-2 2q-5 4 -10 5q1 12 6 15q1 4 -1 4q-10 -5 -14 -10q-2 -4 1 -6q2 -1 4 -4
q-1 -2 -1 -5q-3 -15 -8 -24q-2 -3 1 -8q4 -7 18 -20zM91 59q2 0 3 1q0 1 -1 2q-8 8 -14 15q-4 5 -2 -1q3 -8 -1 -6q-1 2 -11 6q-3 1 0 -2q10 -6 14 -9q1 -3 12 -6zM118 145q6 4 14 5q6 -1 5 7q17 -1 24 2q0 3 -3 4q-10 -2 -22 3q0 16 -4 26q37 -2 54 -2q8 -8 14 -4
q21 13 31 19q2 4 -3 6q-4 0 -11 -6q-14 -10 -32 -11q-66 -2 -133 13q-15 4 -22 3q-3 -1 -3 -2t3 -1q49 -8 93 -14q-4 -5 -3 -9q1 -5 1 -14l-10 4q-7 3 -16 1q-2 0 -2 -1t3 -2q9 -2 15 -5q5 -1 10 -3q2 -11 -5 -17q-4 -3 2 -2z" />
</svg>
